<svg width="400" height="400" viewBox="0 0 400 400" xmlns="http://www.w3.org/2000/svg" role="img">
<title>App logo</title>
<desc>Rounded square app icon with a dark space-themed background dotted with stars, containing a chat bubble with a voice waveform and a checkmark badge, representing a voice check-in and journaling assistant.</desc>

<rect x="0" y="0" width="400" height="400" rx="92" fill="#0F0818"/>

<circle cx="48" cy="64" r="2.4" fill="#FFFFFF" opacity="0.9"/>
<circle cx="90" cy="40" r="1.6" fill="#FFFFFF" opacity="0.5"/>
<circle cx="132" cy="78" r="1.8" fill="#FFFFFF" opacity="0.7"/>
<circle cx="66" cy="120" r="1.4" fill="#FFFFFF" opacity="0.4"/>
<circle cx="34" cy="200" r="2" fill="#FFFFFF" opacity="0.6"/>
<circle cx="58" cy="260" r="1.6" fill="#FFFFFF" opacity="0.5"/>
<circle cx="36" cy="320" r="2.2" fill="#FFFFFF" opacity="0.8"/>
<circle cx="86" cy="350" r="1.4" fill="#FFFFFF" opacity="0.35"/>
<circle cx="120" cy="330" r="1.8" fill="#FFFFFF" opacity="0.6"/>
<circle cx="150" cy="52" r="1.4" fill="#FFFFFF" opacity="0.3"/>
<circle cx="330" cy="50" r="2" fill="#FFFFFF" opacity="0.7"/>
<circle cx="360" cy="90" r="1.6" fill="#FFFFFF" opacity="0.5"/>
<circle cx="310" cy="120" r="1.4" fill="#FFFFFF" opacity="0.4"/>
<circle cx="368" cy="150" r="2.2" fill="#FFFFFF" opacity="0.8"/>
<circle cx="340" cy="200" r="1.6" fill="#FFFFFF" opacity="0.45"/>
<circle cx="372" cy="250" r="1.8" fill="#FFFFFF" opacity="0.6"/>
<circle cx="352" cy="310" r="1.4" fill="#FFFFFF" opacity="0.35"/>
<circle cx="318" cy="345" r="2" fill="#FFFFFF" opacity="0.7"/>
<circle cx="366" cy="360" r="1.6" fill="#FFFFFF" opacity="0.5"/>
<circle cx="200" cy="30" r="1.6" fill="#FFFFFF" opacity="0.5"/>
<circle cx="230" cy="365" r="1.8" fill="#FFFFFF" opacity="0.55"/>
<circle cx="170" cy="378" r="1.4" fill="#FFFFFF" opacity="0.4"/>

<path d="
M 130 108
L 270 108
Q 302 108 302 140
L 302 232
Q 302 264 270 264
L 176 264
L 138 300
L 146 264
L 130 264
Q 98 264 98 232
L 98 140
Q 98 108 130 108
Z" fill="#FFFFFF"/>

<rect x="142" y="158" width="16" height="56" rx="8" fill="#5B6CF9"/>
<rect x="172" y="140" width="16" height="92" rx="8" fill="#5B6CF9"/>
<rect x="202" y="122" width="16" height="128" rx="8" fill="#7C3AED"/>
<rect x="232" y="140" width="16" height="92" rx="8" fill="#5B6CF9"/>
<rect x="262" y="158" width="16" height="56" rx="8" fill="#5B6CF9"/>

<circle cx="292" cy="278" r="42" fill="#22C55E" stroke="#0F0818" stroke-width="8"/>
<path d="M 274 278 L 287 291 L 312 264" fill="none" stroke="#FFFFFF" stroke-width="8" stroke-linecap="round" stroke-linejoin="round"/>

</svg>
